#!OML:ASF H:\Terrain\Patient Classification 1\Walking\liu\liu.ASF
:FULLY-SPECIFIED
:DEGREES
97
root 18.813299 32.585602 -47.306000 6.675800 -4.651280 7.631720
lowerback -13.948540 -4.138880 -9.228840
upperback -0.571944 -4.950180 4.343960
thorax 7.822660 -2.668960 9.199680
lowerneck -42.076401 -9.846680 -25.247400
upperneck 39.512798 -11.103800 22.481001
head 20.988800 -4.423740 10.616940
rclavicle -0.000000 0.000000
rhumerus -87.003197 23.690800 -174.204407
rradius 76.566399
rwrist -43.423199
rhand -61.245602 -47.869202
rfingers 14.250040
rthumb -7.837820 -107.756599
lclavicle -0.000000 0.000000
lhumerus -41.125999 -42.677799 174.611801
lradius 69.897797
lwrist 17.415899
lhand -31.113600 -50.642200
lfingers 14.250040
lthumb 21.255400 8.780280
rfemur -65.925598 6.816640 31.950600
rtibia 92.688004
rfoot -41.591801 -21.372601
rtoes -37.254601
lfemur -10.206580 0.938816 -58.636002
ltibia 43.030800
lfoot -36.876202 14.769040
ltoes -1.795424
98
root 18.815840 32.571400 -47.066399 6.528420 -3.683080 7.256820
lowerback -13.802120 -4.281320 -8.655960
upperback -0.665256 -5.193040 4.382620
thorax 7.646820 -2.773320 8.893900
lowerneck -41.315399 -9.909480 -25.517200
upperneck 39.480000 -11.246300 22.667601
head 20.870199 -4.510640 10.709580
rclavicle 0.000000 0.000000
rhumerus -87.795601 23.812000 -174.343002
rradius 76.554398
rwrist -43.905201
rhand -62.065399 -46.843601
rfingers 14.250040
rthumb -8.629460 -106.715797
lclavicle 0.000000 0.000000
lhumerus -41.074600 -43.201599 174.752197
lradius 71.047798
lwrist 17.814980
lhand -30.438999 -50.613602
lfingers 14.250040
lthumb 21.906000 8.775000
rfemur -66.638603 7.374120 31.905800
rtibia 89.945198
rfoot -41.164600 -20.609400
rtoes -37.201599
lfemur -8.420060 0.215224 -58.289200
ltibia 41.622200
lfoot -36.874599 14.904000
ltoes -3.430860
99
root 18.813940 32.564800 -46.813202 6.568600 -2.850980 7.272120
lowerback -14.071900 -4.463060 -8.541520
upperback -0.772732 -5.434460 4.386720
thorax 7.707880 -2.890220 8.799800
lowerneck -40.732201 -9.858260 -25.971399
upperneck 39.758202 -11.187740 22.915400
head 20.875799 -4.509820 10.899540
rclavicle 0.000000 -0.000000
rhumerus -88.128601 23.706600 -174.136398
rradius 76.056602
rwrist -44.167999
rhand -62.072399 -45.955200
rfingers 14.250040
rthumb -8.636160 -105.827003
lclavicle 0.000000 -0.000000
lhumerus -41.145599 -43.827000 175.068802
lradius 72.234596
lwrist 18.919519
lhand -29.707399 -50.125401
lfingers 14.250040
lthumb 22.611601 9.225260
rfemur -67.565399 8.540940 31.233000
rtibia 87.395401
rfoot -41.244202 -20.011400
rtoes -34.734402
lfemur -6.596680 0.303988 -58.241402
ltibia 39.929798
lfoot -36.813000 14.260620
ltoes -2.959920
100
root 18.811880 32.559601 -46.552601 6.830200 -2.202340 7.639320
lowerback -14.591200 -4.698400 -8.915660
upperback -0.849070 -5.695380 4.325960
thorax 7.964120 -3.029940 8.902400
lowerneck -40.755402 -9.753520 -26.179001
upperneck 40.215801 -11.033080 23.020399
head 21.033001 -4.445800 11.015240
rclavicle 0.000000 0.000000
rhumerus -87.929199 23.346600 -173.732803
rradius 75.167198
rwrist -43.825600
rhand -61.073399 -45.791599
rfingers 14.250040
rthumb -7.671520 -105.681999
lclavicle 0.000000 0.000000
lhumerus -41.201000 -44.666801 175.285599
lradius 73.311401
lwrist 20.177999
lhand -30.027599 -50.143600
lfingers 14.250040
lthumb 22.302799 9.223700
rfemur -68.758003 9.914240 30.033199
rtibia 84.982399
rfoot -41.519798 -19.058840
rtoes -31.549801
lfemur -4.837460 0.659066 -58.471001
ltibia 37.818600
lfoot -36.448799 13.155260
ltoes -0.512990
101
root 18.816080 32.550598 -46.293800 6.953000 -1.563774 8.049420
lowerback -14.959060 -4.762740 -9.186040
upperback -0.784110 -5.731940 4.069140
thorax 8.242540 -3.057880 8.768060
lowerneck -40.811199 -10.020360 -26.161600
upperneck 40.487202 -11.401500 22.905001
head 21.190800 -4.626700 10.919060
rclavicle 0.000000 0.000000
rhumerus -88.211800 22.816000 -173.623993
rradius 75.017998
rwrist -42.893600
rhand -60.384800 -47.467400
rfingers 14.250040
rthumb -7.006500 -107.369202
lclavicle 0.000000 0.000000
lhumerus -41.181801 -46.281601 175.418793
lradius 74.467201
lwrist 21.250401
lhand -30.906200 -51.012402
lfingers 14.250040
lthumb 21.455601 8.399700
rfemur -69.781799 10.776260 28.901600
rtibia 82.571999
rfoot -41.682400 -18.065020
rtoes -33.882401
lfemur -2.650980 0.720364 -58.816002
ltibia 35.154800
lfoot -35.766201 12.605240
ltoes -1.502736
102
root 18.821140 32.564201 -46.040600 6.691260 -0.849438 7.997000
lowerback -15.015500 -4.693400 -8.783140
upperback -0.614458 -5.658720 3.803600
thorax 8.408980 -3.017760 8.265300
lowerneck -40.403198 -10.323360 -25.808399
upperneck 40.373600 -11.864340 22.420200
head 21.110800 -4.876960 10.597480
rclavicle -0.000000 -0.000000
rhumerus -88.591599 21.834000 -173.506805
rradius 75.156601
rwrist -42.223400
rhand -59.318401 -48.737999
rfingers 14.250040
rthumb -5.976740 -108.655602
lclavicle -0.000000 -0.000000
lhumerus -41.255600 -47.910599 175.585205
lradius 75.665199
lwrist 21.901800
lhand -31.527201 -51.870998
lfingers 14.250040
lthumb 20.856400 7.571680
rfemur -70.245399 11.312780 28.411400
rtibia 80.106201
rfoot -41.820202 -17.266979
rtoes -34.321602
lfemur 0.229998 0.671566 -58.700802
ltibia 32.062599
lfoot -34.974800 12.248720
ltoes -4.663560
103
root 18.821140 32.588799 -45.795799 6.309080 0.047018 7.802020
lowerback -14.750380 -4.820380 -8.380080
upperback -0.576584 -5.870860 3.767520
thorax 8.299400 -3.113120 7.982760
lowerneck -39.909000 -10.248040 -25.902800
upperneck 40.628601 -11.815980 22.434000
head 21.107000 -4.876800 10.636180
rclavicle -0.000000 0.000000
rhumerus -88.891998 21.310801 -173.267197
rradius 74.821198
rwrist -41.777199
rhand -59.417801 -48.300201
rfingers 14.250040
rthumb -6.072760 -108.216400
lclavicle -0.000000 0.000000
lhumerus -41.573002 -48.427799 175.909805
lradius 76.748199
lwrist 22.379400
lhand -30.823200 -51.625000
lfingers 14.250040
lthumb 21.535400 7.782960
rfemur -70.575401 11.673120 28.061800
rtibia 77.530197
rfoot -41.659401 -16.521839
rtoes -33.065201
lfemur 3.239840 0.508440 -58.360199
ltibia 28.903799
lfoot -34.307201 11.334140
ltoes -4.754020
104
root 18.816700 32.577000 -45.540798 6.222060 0.836534 8.340600
lowerback -14.705760 -5.021340 -8.955540
upperback -0.601796 -6.085500 3.608280
thorax 8.292160 -3.228460 8.117500
lowerneck -40.183800 -10.058780 -25.943199
upperneck 41.525002 -11.658900 22.771400
head 21.475000 -4.767640 10.826800
rclavicle -0.000000 -0.000000
rhumerus -89.366997 21.292999 -173.262802
rradius 74.430603
rwrist -41.217800
rhand -60.717602 -49.016602
rfingers 14.250040
rthumb -7.327840 -108.913002
lclavicle -0.000000 -0.000000
lhumerus -41.776199 -49.081600 176.215195
lradius 77.685600
lwrist 23.246201
lhand -29.579201 -50.881802
lfingers 14.250040
lthumb 22.735399 8.462000
rfemur -71.269600 12.091000 26.809200
rtibia 74.902199
rfoot -41.485600 -15.405720
rtoes -36.191399
lfemur 5.939920 0.401244 -58.807598
ltibia 25.788799
lfoot -33.717602 10.453160
ltoes -4.892020
105
root 18.814421 32.571602 -45.267200 6.514060 1.407528 8.561300
lowerback -15.217120 -5.127460 -9.184320
upperback -0.597734 -6.176480 3.413320
thorax 8.594600 -3.282140 8.012120
lowerneck -40.660599 -9.951780 -25.198000
upperneck 41.986599 -11.709980 22.710800
head 21.714199 -4.725780 10.684100
rclavicle -0.000000 0.000000
rhumerus -89.637001 20.908001 -173.325806
rradius 74.067802
rwrist -40.967400
rhand -60.293999 -48.407398
rfingers 14.250040
rthumb -6.918800 -108.310799
lclavicle -0.000000 0.000000
lhumerus -42.169800 -50.101799 176.424393
lradius 78.970802
lwrist 24.160000
lhand -29.360800 -50.419998
lfingers 14.250040
lthumb 22.945999 8.912080
rfemur -72.195396 12.940120 25.727200
rtibia 72.323196
rfoot -41.629601 -14.408820
rtoes -36.056599
lfemur 8.342800 0.496952 -58.943001
ltibia 22.707199
lfoot -33.179798 10.038240
ltoes -7.410560
106
root 18.814739 32.589001 -44.995998 7.042260 1.973672 8.003080
lowerback -15.776660 -5.210860 -8.698900
upperback -0.830964 -6.316720 3.613280
thorax 8.664460 -3.340320 7.913820
lowerneck -40.338799 -9.890140 -24.594801
upperneck 41.823002 -11.700940 22.163200
head 21.552200 -4.743900 10.368880
rclavicle 0.000000 -0.000000
rhumerus -89.768997 20.507999 -172.985992
rradius 73.519402
rwrist -40.738800
rhand -59.418999 -46.895599
rfingers 14.250040
rthumb -6.073740 -106.811798
lclavicle 0.000000 -0.000000
lhumerus -43.222401 -51.215199 177.220795
lradius 80.483597
lwrist 25.081600
lhand -30.283199 -49.768002
lfingers 14.250040
lthumb 22.056400 9.612640
rfemur -73.300400 14.152520 25.341801
rtibia 69.897598
rfoot -41.761799 -14.253540
rtoes -34.468399
lfemur 10.505120 0.633640 -58.207802
ltibia 19.483740
lfoot -32.515400 9.553760
ltoes -7.797020
107
root 18.808580 32.562599 -44.730598 7.580760 2.509720 7.769560
lowerback -16.327360 -5.306680 -8.488400
upperback -1.115304 -6.448900 3.757020
thorax 8.686420 -3.397420 7.913560
lowerneck -39.956799 -9.899800 -24.737200
upperneck 41.938202 -11.679560 21.990000
head 21.517599 -4.777340 10.335480
rclavicle -0.000000 0.000000
rhumerus -90.077202 20.202999 -172.783401
rradius 73.038399
rwrist -40.432800
rhand -60.093201 -47.157398
rfingers 14.250040
rthumb -6.725000 -107.064003
lclavicle -0.000000 0.000000
lhumerus -44.123199 -51.920799 178.042404
lradius 81.433601
lwrist 25.667801
lhand -30.368799 -49.701401
lfingers 14.250040
lthumb 21.973801 9.683580
rfemur -74.569397 15.180320 24.661600
rtibia 67.652000
rfoot -41.846199 -14.318660
rtoes -37.720600
lfemur 12.814100 0.777154 -57.767399
ltibia 15.703720
lfoot -31.397600 8.820840
ltoes -5.856960
108
root 18.799780 32.513401 -44.470001 7.611660 3.283660 8.216480
lowerback -16.356640 -5.526320 -8.993120
upperback -1.177494 -6.692120 3.709600
thorax 8.689580 -3.526080 8.117300
lowerneck -40.028000 -9.948660 -25.316999
upperneck 42.481602 -11.707660 22.409800
head 21.768600 -4.790600 10.608380
rclavicle 0.000000 0.000000
rhumerus -90.780998 20.224800 -172.871597
rradius 73.059402
rwrist -39.832600
rhand -60.519001 -48.001598
rfingers 14.250040
rthumb -7.136060 -107.901398
lclavicle 0.000000 0.000000
lhumerus -44.587601 -51.857399 178.642197
lradius 81.956398
lwrist 25.576799
lhand -29.792000 -50.217201
lfingers 14.250040
lthumb 22.530001 9.137760
rfemur -75.357597 15.823840 23.299400
rtibia 65.586403
rfoot -42.071800 -14.160100
rtoes -39.857399
lfemur 16.399940 0.726886 -58.041599
ltibia 10.606260
lfoot -29.621799 8.176040
ltoes -5.716540
